<?xml version="1.0" standalone="no"?>
<!DOCTYPE svg PUBLIC "-//W3C//DTD SVG 20010904//EN"
 "http://www.w3.org/TR/2001/REC-SVG-20010904/DTD/svg10.dtd">
<svg version="1.0" xmlns="http://www.w3.org/2000/svg"
 width="500.000000pt" height="500.000000pt" viewBox="0 0 500.000000 500.000000"
 preserveAspectRatio="xMidYMid meet">

<g transform="translate(0.000000,500.000000) scale(0.100000,-0.100000)"
fill="#000000" stroke="none">
<path d="M1554 4130 c-135 -37 -252 -102 -344 -192 -25 -24 -68 -58 -97 -77
-147 -93 -211 -247 -169 -409 9 -35 16 -92 16 -126 0 -98 16 -163 65 -262 49
-100 139 -202 221 -250 25 -15 56 -44 70 -65 13 -21 42 -50 63 -65 22 -14 42
-32 45 -41 3 -8 9 -72 12 -141 l6 -127 -36 -70 c-20 -38 -67 -115 -104 -171
-65 -98 -69 -102 -147 -142 -106 -55 -209 -135 -268 -208 -62 -77 -119 -191
-124 -251 -4 -43 0 -55 37 -112 129 -199 383 -339 725 -398 125 -22 567 -25
715 -5 176 24 486 95 591 137 11 4 24 -6 42 -34 102 -154 343 -176 613 -57 55
24 80 40 82 54 3 16 -5 20 -50 25 -111 11 -215 65 -263 135 -32 47 -32 65 1
87 26 17 28 16 99 -18 109 -53 178 -71 275 -71 96 0 161 18 234 65 64 40 60
62 -15 70 -81 9 -149 59 -80 59 47 0 160 39 251 87 116 60 222 139 218 161 -4
19 -8 19 -97 -5 -53 -14 -75 -15 -128 -6 -66 12 -118 37 -108 53 10 16 77 30
142 30 37 0 65 5 69 12 19 30 -158 130 -265 150 -72 14 -60 26 27 27 68 1 68
18 1 61 -115 74 -256 110 -360 91 -78 -13 -156 -49 -205 -94 l-39 -35 -63 25
c-42 17 -62 31 -62 42 0 28 57 106 99 135 43 30 146 75 172 76 26 0 42 25 25
39 -20 17 -189 58 -271 65 -197 19 -365 -61 -422 -200 -16 -40 -21 -44 -52
-44 l-34 0 27 25 c84 78 88 238 12 427 l-24 59 19 53 c10 30 21 72 25 95 5 32
16 48 51 77 51 42 70 68 77 106 2 14 9 35 15 46 27 51 0 112 -50 112 -34 0
-33 -2 -14 43 20 49 19 83 -5 107 -29 29 -67 25 -100 -10 l-27 -29 -13 24
c-10 19 -22 25 -46 25 -46 0 -58 -25 -52 -117 l5 -73 -33 -19 c-25 -15 -35
-29 -40 -57 l-7 -38 -16 24 c-33 50 -77 93 -108 107 l-33 13 27 55 c20 40 34
56 53 60 31 7 80 55 106 105 15 27 19 57 19 126 0 82 -3 94 -28 133 -27 41
-64 64 -119 76 -17 3 -28 12 -28 21 0 44 -68 152 -140 224 -130 129 -292 198
-490 206 -84 3 -119 0 -176 -16z m249 -26 c3 -4 -7 -23 -23 -43 -17 -19 -30
-41 -30 -48 0 -9 -28 -10 -112 -6 -62 3 -114 7 -116 9 -9 6 79 83 100 87 37 7
174 8 181 1z m153 -39 c153 -58 277 -163 340 -289 53 -108 37 -118 -53 -37
-120 109 -259 191 -391 231 l-73 22 17 27 c20 31 58 60 91 70 2 1 32 -10 69
-24z m-459 -24 c-22 -40 -17 -38 -177 -77 l-25 -6 25 21 c25 21 176 101 190
101 5 0 -1 -17 -13 -39z m278 -91 c100 -22 223 -77 312 -139 120 -83 119 -91
-2 -31 -180 90 -268 113 -440 114 -170 1 -248 -15 -383 -81 -120 -58 -205
-140 -256 -246 l-35 -72 -1 56 c-1 151 108 273 320 358 158 63 323 77 485 41z
m-497 -322 c18 -18 14 -57 -9 -89 -37 -52 -112 -76 -139 -44 -46 55 97 184
148 133z m1160 -8 c27 -25 28 -40 4 -33 -10 2 -30 -5 -44 -16 -35 -28 -45 -87
-23 -135 18 -39 43 -51 81 -42 25 7 25 6 8 -19 -32 -49 -90 -42 -119 15 -36
70 -27 179 20 226 29 29 45 30 73 4z m-160 -86 c-14 -80 7 -159 58 -209 40
-41 22 -48 -25 -10 -44 37 -65 101 -59 178 5 57 23 115 34 105 2 -2 -1 -31 -8
-64z m176 -10 c18 -47 -6 -108 -32 -82 -13 13 -17 80 -5 91 11 12 31 7 37 -9z
m-1274 -183 c0 -11 -3 -27 -6 -36 -8 -19 -55 -45 -84 -45 -30 0 -26 45 6 75
33 31 84 34 84 6z m1596 -86 c3 -8 -4 -41 -17 -73 -19 -48 -31 -65 -67 -87
-43 -27 -44 -28 -63 -9 -22 23 -41 174 -21 174 19 0 36 -42 42 -100 4 -40 9
-56 22 -58 12 -2 18 7 23 40 15 93 63 160 81 113z m-443 -1 c9 -10 -50 -118
-80 -146 l-25 -23 25 50 c13 28 32 67 40 88 15 36 26 44 40 31z m502 -184 c0
-22 -4 -25 -30 -22 -16 2 -50 -4 -74 -13 -51 -18 -51 -18 -51 -5 0 16 104 70
130 68 19 -2 25 -9 25 -28z m-461 -1 c27 -21 86 -114 86 -135 0 -6 -9 -23 -20
-36 l-20 -26 -47 47 c-27 25 -56 51 -65 56 -16 9 -16 13 0 63 9 28 21 52 28
52 6 0 23 -9 38 -21z m248 -45 c21 -35 15 -64 -13 -64 -13 0 -20 10 -25 35 -4
25 -11 35 -25 35 -19 0 -25 11 -12 24 17 16 58 0 75 -30z m-381 -23 c-30 -57
-66 -96 -135 -146 -170 -121 -474 -203 -620 -166 -43 11 -121 50 -113 57 2 2
38 -3 81 -11 210 -40 437 15 591 144 33 27 90 71 127 96 37 26 70 50 73 56 4
5 8 9 11 9 2 0 -4 -17 -15 -39z m568 -4 c8 -11 -1 -17 -43 -30 -61 -20 -76
-21 -76 -7 0 11 75 49 96 50 6 0 16 -6 23 -13z m-178 -87 c24 1 60 1 79 0 33
-2 33 -3 12 -13 -12 -5 -25 -22 -28 -36 -24 -108 -28 -116 -63 -119 -18 -2
-47 2 -63 9 -28 12 -88 86 -88 110 0 6 15 28 33 49 32 36 32 37 53 18 14 -12
35 -18 65 -18z m-265 -50 l23 -35 -35 -94 c-19 -51 -33 -100 -30 -108 12 -30
38 -7 56 47 9 30 27 76 40 102 l23 47 28 -38 c38 -53 83 -83 134 -89 l44 -4
-26 -52 c-37 -75 -87 -131 -136 -155 -112 -54 -199 3 -257 167 -19 52 -33 78
-45 81 -29 5 -13 -80 31 -168 44 -85 101 -137 163 -147 22 -4 43 -14 50 -26
13 -20 11 -21 -56 -16 -85 7 -167 42 -216 94 -36 39 -67 107 -67 150 0 12 -5
24 -12 26 -9 3 -155 -25 -294 -57 -11 -2 -35 -28 -54 -57 -30 -49 -32 -57 -26
-113 3 -33 8 -73 11 -90 4 -21 -1 -38 -14 -54 l-19 -25 -21 42 c-32 64 -51
148 -51 233 0 60 -3 78 -15 83 -55 21 -41 -199 20 -329 21 -43 25 -59 16 -68
-9 -9 -15 -7 -23 8 -16 29 -106 115 -120 115 -10 0 -13 38 -14 153 l-1 153 91
1 c251 2 561 130 678 279 l20 24 40 -22 c23 -13 51 -39 64 -58z m323 -350 c63
-194 24 -315 -113 -355 -32 -9 -60 -14 -63 -12 -9 10 9 88 20 92 52 14 107 39
125 56 43 39 19 117 -36 122 -11 0 -45 -8 -76 -18 -50 -17 -58 -18 -66 -5 -15
24 -12 28 28 49 40 20 142 124 142 144 0 24 18 -11 39 -73z m-699 55 c-27 -32
-220 -83 -220 -58 0 21 35 38 109 54 103 23 127 23 111 4z m80 -53 c11 -29 11
-34 -6 -47 -17 -12 -20 -11 -26 3 -9 23 -10 77 -1 86 9 8 17 -2 33 -42z m-80
-39 c0 -16 11 -51 24 -79 l24 -52 -71 -33 c-53 -25 -86 -34 -125 -34 l-53 0
-29 -52 c-29 -51 -63 -83 -87 -83 -20 0 -15 27 7 43 11 8 37 35 56 60 20 26
40 44 45 41 14 -8 11 3 -11 43 -12 23 -20 57 -20 85 l0 48 58 0 c31 1 80 9
107 19 70 25 75 25 75 -6z m183 -82 c140 -77 264 -90 387 -41 40 16 55 18 66
9 23 -19 16 -29 -38 -54 -139 -62 -345 -31 -457 70 -37 33 -51 55 -36 55 3 0
38 -18 78 -39z m32 -120 c53 -23 114 -38 199 -46 l68 -8 -6 -41 c-7 -48 -56
-148 -91 -189 -30 -34 -177 -92 -272 -108 -54 -9 -76 -8 -108 2 -40 14 -40 15
-43 69 -5 74 11 121 59 176 32 37 37 49 28 60 -10 12 -15 12 -33 1 -12 -8 -64
-16 -124 -20 l-103 -6 17 28 c14 23 26 30 64 35 26 4 92 28 146 55 l99 49 30
-20 c17 -10 48 -27 70 -37z m-712 0 c30 -19 97 -106 97 -125 0 -7 -29 -17 -64
-24 -36 -6 -99 -23 -141 -36 -42 -13 -75 -21 -73 -17 9 21 142 221 147 221 3
0 19 -9 34 -19z m442 -168 c-29 -68 -36 -103 -32 -152 2 -31 -2 -74 -10 -99
-18 -62 -16 -99 7 -147 20 -41 79 -85 114 -85 9 0 24 -10 34 -21 9 -12 30 -37
46 -56 25 -30 27 -37 17 -59 -6 -14 -11 -55 -11 -91 0 -64 1 -67 43 -108 52
-53 101 -64 180 -41 129 37 227 168 227 301 0 41 -5 50 -75 127 -58 64 -74 88
-69 103 13 40 16 123 4 145 -10 18 -7 26 13 53 13 18 34 51 45 73 l21 42 85 7
c126 10 299 -11 466 -57 64 -17 80 -26 108 -61 l34 -41 -65 -12 c-97 -18 -172
-59 -249 -135 -79 -78 -85 -101 -35 -140 87 -69 189 -107 310 -117 l79 -7 -48
-94 -49 -94 -85 -43 c-259 -132 -611 -220 -979 -245 -166 -11 -406 -5 -399 10
2 4 24 49 50 101 26 52 59 136 74 185 25 80 28 106 28 240 1 131 -2 160 -22
225 -26 82 -70 173 -113 236 l-28 42 27 5 c15 4 45 10 67 15 22 6 75 10 119
11 71 1 77 -1 71 -16z m1734 -24 c24 -5 67 -19 94 -31 l50 -22 -48 -13 c-67
-20 -116 -53 -113 -78 3 -18 11 -20 94 -22 91 -2 192 -27 237 -58 21 -15 19
-16 -51 -30 -19 -4 -49 -20 -68 -37 -28 -25 -32 -33 -24 -49 16 -28 102 -68
177 -82 l65 -12 -55 -31 c-87 -50 -177 -82 -268 -96 -94 -15 -102 -23 -69 -76
13 -21 40 -42 72 -57 l52 -24 -30 -12 c-63 -24 -150 -33 -221 -22 -74 12 -159
41 -210 73 -30 18 -32 22 -21 45 8 17 17 24 27 21 9 -3 41 -14 71 -25 30 -11
78 -20 105 -21 l50 0 -41 25 c-46 27 -65 60 -53 92 11 31 34 40 119 46 41 3
104 16 140 28 l65 23 -69 16 c-38 8 -71 20 -73 25 -1 6 17 23 42 38 68 43 61
56 -56 111 -55 26 -119 53 -141 60 -23 6 -43 16 -45 22 -2 6 17 34 43 63 l46
51 -46 0 c-55 0 -99 -17 -144 -55 -28 -23 -35 -26 -43 -14 -13 20 -12 23 19
50 83 76 204 105 321 78z m-2069 -14 c10 -12 10 -15 -1 -18 -8 -2 -56 -14
-107 -26 -197 -48 -437 -175 -586 -310 -52 -47 -12 12 52 77 120 123 286 210
507 268 108 28 119 28 135 9z m1735 -190 c6 -2 -36 -4 -91 -4 -108 -1 -196
-21 -264 -61 -33 -20 -34 -20 -12 -1 32 28 127 61 197 70 55 6 146 4 170 -4z
m58 -12 c-7 -2 -21 -2 -30 0 -10 3 -4 5 12 5 17 0 24 -2 18 -5z m-1143 -12 c0
-29 -27 -73 -58 -94 -56 -39 -122 -52 -187 -38 -68 15 -79 29 -71 85 l7 43 42
-14 c46 -16 125 -12 199 11 52 17 68 19 68 7z m690 -64 c0 -2 -10 -12 -22 -23
l-23 -19 19 23 c18 21 26 27 26 19z m-506 -134 c63 -65 66 -70 66 -118 -1
-148 -161 -286 -285 -245 -62 21 -89 87 -64 158 l10 31 41 -15 c54 -19 84 -17
136 6 29 13 42 25 42 40 0 24 -26 26 -54 5 -25 -19 -89 -19 -124 -1 -15 8 -44
32 -66 54 l-38 40 56 12 c59 12 166 61 186 85 7 8 16 15 20 15 4 0 38 -30 74
-67z"/>
</g>
</svg>
