<?xml version="1.0" standalone="no"?>
<!DOCTYPE svg PUBLIC "-//W3C//DTD SVG 20010904//EN"
 "http://www.w3.org/TR/2001/REC-SVG-20010904/DTD/svg10.dtd">
<svg version="1.0" xmlns="http://www.w3.org/2000/svg"
 width="512.000000pt" height="512.000000pt" viewBox="0 0 512.000000 512.000000"
 preserveAspectRatio="xMidYMid meet">

<g transform="translate(0.000000,512.000000) scale(0.100000,-0.100000)"
fill="#000000" stroke="none">
<path d="M1326 5029 c-218 -32 -407 -128 -567 -288 -173 -173 -271 -382 -294
-627 l-7 -72 -81 -22 c-104 -29 -148 -51 -202 -101 -49 -45 -94 -136 -101
-206 -3 -32 29 -276 100 -748 117 -774 115 -764 201 -844 25 -23 66 -51 92
-63 27 -13 50 -24 52 -25 2 -1 -12 -20 -31 -41 -51 -57 -110 -146 -155 -237
-126 -250 -156 -550 -84 -827 195 -747 971 -1127 1673 -818 263 115 498 354
618 625 66 152 91 265 97 440 6 166 -7 272 -51 411 -25 78 -25 83 -27 502 l-2
423 129 111 c345 295 748 562 1099 728 113 54 293 130 343 145 l22 6 0 -442 0
-443 -295 -558 c-162 -307 -310 -581 -329 -611 -76 -118 -114 -245 -122 -402
-8 -151 17 -270 85 -409 103 -209 262 -349 491 -428 91 -31 101 -32 250 -33
184 0 238 12 385 85 437 216 593 757 340 1179 -29 47 -183 334 -343 637 l-292
552 0 465 0 464 123 32 c155 40 190 56 232 102 47 52 65 100 65 173 0 77 -23
129 -82 183 -81 74 -150 79 -343 29 -279 -74 -516 -164 -795 -302 -384 -190
-750 -429 -1095 -717 l-90 -76 -16 77 c-18 90 -42 165 -76 243 l-24 56 50 66
c263 348 275 815 31 1178 -55 81 -177 203 -255 256 -218 147 -473 208 -719
172z m350 -189 c86 -22 241 -95 289 -136 l30 -26 -30 6 c-70 14 -275 18 -353
7 -343 -50 -615 -239 -703 -488 -118 -333 140 -700 571 -815 72 -19 111 -23
250 -23 91 0 188 3 215 8 l50 7 -54 -36 c-138 -93 -290 -138 -466 -137 -286 2
-536 135 -689 367 -105 158 -140 274 -140 466 -1 143 10 203 58 322 108 268
374 465 676 502 67 8 218 -4 296 -24z m203 -320 c46 -6 97 -18 112 -26 27 -13
66 -76 83 -132 7 -22 6 -21 -41 8 -67 43 -163 71 -263 77 -82 5 -86 4 -109
-21 -33 -35 -33 -87 -2 -120 17 -18 37 -25 89 -31 186 -20 301 -105 302 -222
0 -49 17 -82 51 -101 30 -16 30 -19 25 -69 -13 -111 -81 -281 -126 -315 -40
-29 -132 -41 -280 -35 -225 8 -385 69 -526 200 -112 105 -156 218 -134 351 23
142 133 269 308 356 151 75 329 102 511 80z m-1380 -765 c12 -44 33 -103 46
-131 l23 -52 -19 -66 c-31 -112 -44 -288 -29 -376 8 -48 15 -212 19 -450 l6
-375 27 -57 c15 -32 24 -58 20 -58 -25 1 -109 60 -125 88 -15 25 -44 193 -119
690 -54 361 -99 680 -100 709 0 36 6 62 21 86 27 45 53 61 132 85 74 22 65 31
98 -93z m398 -553 c32 -21 77 -49 99 -60 30 -15 48 -34 63 -65 43 -90 86 -119
392 -272 201 -101 294 -153 312 -175 67 -79 38 -209 -56 -254 -73 -34 -95 -27
-414 134 -315 158 -382 201 -458 298 -97 122 -145 261 -145 422 0 152 0 152
80 76 38 -35 95 -82 127 -104z m1227 -73 c13 -46 30 -128 37 -182 l13 -98 -95
-95 -94 -94 0 143 c-1 133 -3 148 -32 232 -36 103 -44 85 67 158 43 28 67 39
72 31 4 -6 18 -49 32 -95z m-334 -136 c23 -76 37 -183 24 -183 -5 0 -103 50
-219 110 l-210 110 115 1 c63 0 140 7 170 14 99 22 97 23 120 -52z m-1024
-369 c81 -77 195 -145 484 -289 312 -155 361 -170 460 -143 30 8 63 18 73 23
16 7 17 -18 17 -437 l0 -445 -23 -44 c-70 -131 -266 -142 -352 -20 l-30 43 -5
332 -5 333 -28 41 c-15 23 -45 51 -67 62 -22 11 -127 41 -233 66 -105 24 -204
49 -219 55 -49 20 -105 91 -117 148 -9 45 -16 321 -8 321 2 0 25 -21 53 -46z
m3644 -528 c89 -169 160 -310 158 -312 -2 -2 -38 8 -80 21 -167 53 -339 53
-505 0 -43 -13 -79 -23 -80 -21 -2 2 72 145 164 319 92 173 171 312 174 309 4
-4 80 -146 169 -316z m-2030 -609 c-45 -154 -255 -196 -357 -72 -45 54 -53
102 -53 302 l0 178 72 80 c39 44 132 145 207 224 l136 144 3 -409 c2 -274 -1
-421 -8 -447z m-1348 484 l177 -42 3 -312 c3 -298 5 -315 27 -370 30 -75 115
-168 185 -201 183 -87 401 -21 497 149 l29 51 69 -34 c79 -39 177 -52 245 -33
22 6 42 8 44 6 8 -8 -27 -227 -46 -290 l-18 -60 -71 3 c-191 10 -361 -105
-424 -286 -27 -77 -27 -201 0 -272 l19 -51 -23 -9 c-128 -49 -396 -60 -547
-22 -185 46 -347 130 -480 251 -109 99 -228 282 -278 427 l-18 51 49 -5 c175
-17 362 95 447 266 37 75 37 77 37 196 0 116 -1 124 -33 190 -59 126 -145 204
-273 251 l-63 23 95 96 95 97 39 -14 c22 -8 120 -33 217 -56z m3382 -320 c33
-9 61 -21 63 -28 7 -21 -57 -82 -99 -94 -99 -26 -218 34 -218 112 0 23 5 28
28 32 44 6 163 -5 226 -22z m-348 -189 c90 -101 224 -135 364 -93 61 19 81 31
130 79 31 31 62 66 67 76 10 18 12 18 48 -10 92 -70 181 -216 217 -356 11 -44
18 -81 16 -83 -1 -2 -28 3 -58 11 -194 50 -393 -47 -484 -236 -29 -60 -31 -73
-31 -170 0 -97 2 -110 31 -170 17 -36 45 -82 63 -102 l32 -36 -77 -17 c-101
-23 -262 -16 -354 15 -288 96 -474 371 -457 674 13 245 147 451 363 560 l48
25 18 -59 c12 -39 33 -74 64 -108z m774 -554 c43 -22 45 -25 43 -63 -2 -24
-22 -79 -49 -135 -38 -76 -62 -110 -125 -173 -88 -87 -87 -87 -152 -21 -61 63
-82 157 -55 248 15 51 99 137 148 153 61 19 141 15 190 -9z"/>
<path d="M1110 994 c-290 -105 -310 -503 -31 -632 80 -37 192 -38 272 0 79 36
133 89 171 165 64 131 35 287 -74 389 -27 25 -70 55 -96 66 -63 29 -181 34
-242 12z"/>
<path d="M3870 1261 c-86 -28 -150 -82 -191 -161 -35 -67 -34 -186 3 -255 31
-60 77 -105 138 -136 63 -32 186 -33 247 -1 63 33 111 79 141 136 22 43 27 64
27 131 0 67 -5 88 -27 130 -52 99 -140 156 -248 161 -36 2 -76 0 -90 -5z m147
-186 c59 -39 66 -134 14 -186 -97 -97 -257 19 -194 141 33 65 117 86 180 45z"/>
<path d="M4519 4931 c-19 -15 -24 -30 -27 -85 l-4 -66 -55 0 c-66 0 -86 -10
-103 -50 -10 -24 -10 -36 0 -60 17 -40 37 -50 104 -50 l56 0 0 -51 c0 -78 29
-118 85 -118 56 0 85 40 85 118 l0 51 58 0 c48 0 62 4 79 23 29 31 34 52 22
87 -14 40 -36 50 -103 50 l-56 0 0 51 c0 78 -29 118 -86 119 -18 0 -42 -8 -55
-19z"/>
<path d="M3009 4421 c-25 -26 -29 -37 -29 -85 l0 -56 -56 0 c-48 0 -59 -4 -85
-29 -35 -36 -37 -70 -6 -107 20 -23 34 -28 85 -32 l62 -4 0 -53 c0 -68 26
-105 75 -105 18 0 41 3 50 6 25 10 45 58 45 109 l0 45 45 0 c59 0 103 23 112
58 18 70 -20 112 -101 112 l-54 0 -4 62 c-4 51 -9 65 -32 85 -37 31 -71 29
-107 -6z"/>
<path d="M3535 2676 c-37 -16 -55 -52 -55 -110 l0 -44 -61 -4 c-72 -5 -99 -28
-99 -85 0 -54 36 -83 103 -83 l55 0 4 -60 c5 -69 24 -96 75 -106 27 -5 37 -1
63 24 26 27 30 37 30 86 l0 56 56 0 c48 0 59 4 85 29 17 18 29 40 29 56 0 16
-12 38 -29 56 -26 25 -37 29 -85 29 l-56 0 0 54 c0 85 -51 130 -115 102z"/>
</g>
</svg>
